<?xml version="1.0" encoding="UTF-8" standalone="no"?>
<!-- Created with Inkscape (http://www.inkscape.org/) -->

<svg
   version="1.1"
   id="svg1"
   width="2841.1406"
   height="528.40625"
   viewBox="0 0 2841.1406 528.40626"
   xml:space="preserve"
   xmlns:xlink="http://www.w3.org/1999/xlink"
   xmlns="http://www.w3.org/2000/svg"
   xmlns:svg="http://www.w3.org/2000/svg"><defs
     id="defs1"><linearGradient
       id="linearGradient113"><stop
         style="stop-color:#1e94fc;stop-opacity:1;"
         offset="0.12028302"
         id="stop113" /><stop
         style="stop-color:#762ce5;stop-opacity:1;"
         offset="0.75943398"
         id="stop114" /></linearGradient><linearGradient
       xlink:href="#linearGradient113"
       id="linearGradient96"
       gradientUnits="userSpaceOnUse"
       x1="1775.1477"
       y1="1498.7065"
       x2="2509.6917"
       y2="1937.0634"
       gradientTransform="translate(0,736)" /><linearGradient
       xlink:href="#linearGradient113"
       id="linearGradient97"
       gradientUnits="userSpaceOnUse"
       x1="1775.1477"
       y1="1498.7065"
       x2="2509.6917"
       y2="1937.0634"
       gradientTransform="translate(0,736)" /></defs><g
     id="layer-OCG_7bb9f0dd14c341daa6eb93bc8d6bded9"
     transform="translate(-139.76758,-2268.8398)"><path
       d="m 2517.6016,2403.5762 170.1933,195.0136 -170.1933,195.0157 h 113.4629 l 118.1894,-135.4278 118.1914,135.4278 h 113.4629 l -170.1934,-195.0157 170.1934,-195.0136 h -113.4629 l -118.1914,135.4258 -118.1894,-135.4258 z"
       style="opacity:1"
       id="path47" /><path
       d="m 2517.6016,2403.5762 h 113.4629 l 118.1894,135.4258 118.1914,-135.4258 h 113.4629 l -170.1934,195.0136 170.1934,195.0157 h -113.4629 l -118.1914,-135.4278 -118.1894,135.4278 h -113.4629 l 170.1933,-195.0157 z"
       style="opacity:1;fill:#ffffff"
       id="path78" /><path
       d="m 1626.4453,2403.5762 c -37.8209,0 -93.0471,1e-4 -121.9414,29.5547 -31.708,32.4322 -31.707,100.4543 -31.707,147.7304 v 212.7442 h 99.2793 v -202.5137 c 0,-36.1568 0,-71.134 13.8906,-86.9648 11.4836,-13.0888 32.4608,-13.0899 58.7617,-13.0899 h 109.3613 v -87.4609 z"
       style="opacity:1"
       id="path79" /><path
       d="m 1626.4453,2403.5762 h 127.6445 v 87.4609 h -109.3613 c -26.3009,0 -47.2781,0 -58.7617,13.0899 -13.8893,15.8308 -13.8906,50.808 -13.8906,86.9648 v 202.5137 h -99.2793 v -212.7442 c 0,-47.2761 -10e-4,-115.2982 31.707,-147.7304 28.8943,-29.5546 84.1205,-29.5547 121.9414,-29.5547 z"
       style="opacity:1;fill:#ffffff"
       id="path80" /><path
       d="m 841.6582,2403.5762 c -23.63817,0 -43.98673,5e-4 -54.03125,12.123 -9.79149,11.8174 -9.79101,35.1526 -9.79101,51.6992 v 23.6387 h 147.31445 c 47.27628,0 72.51953,7e-4 72.51953,66.1875 h -93.34765 c -38.14023,-0.8721 -74.23259,2.4644 -102.12891,24.8399 -13.94816,11.1878 -25.84807,27.1362 -33.82227,46.1113 -7.97421,18.9753 -12.02343,40.977 -10.27148,62.9082 1.75204,21.9313 9.30525,43.7913 23.56641,61.6543 14.26106,17.863 35.23037,31.7287 61.13867,38.8027 25.9082,7.074 56.75529,7.3558 85.8789,1.2539 29.12362,-6.1018 56.52336,-18.5876 68.98633,-32.2832 v 33.0938 H 1099.3145 V 2604.5 c 0,-47.2761 -9e-4,-126.9963 -40.0918,-165.3535 -37.177,-35.5697 -108.82857,-35.5703 -141.92192,-35.5703 z m 54.36914,238.7441 h 101.64258 v 66.1875 H 896.02734 c -10.59196,0 -42.54882,-3e-4 -42.54882,-33.0937 0,-33.0932 31.95686,-33.0938 42.54882,-33.0938 z"
       style="opacity:1;fill:#ffffff"
       id="path81" /><path
       d="m 1193.8672,2283.0215 v 120.5547 h -61.459 v 87.4609 h 61.459 v 146.5567 c 0,48.3401 0,101.7864 27.957,128.7031 28.3642,27.3073 85.5049,27.3086 132.7813,27.3086 h 70.914 v -85.0977 h -81.8652 c -17.0744,0 -33.9493,-2e-4 -42.3066,-8.2402 -8.1997,-8.0842 -8.2012,-24.0994 -8.2012,-40.6719 v -168.5586 h 132.373 v -87.4609 h -132.373 v -120.5547 z"
       style="opacity:1"
       id="path82" /><path
       d="m 1193.8672,2283.0215 h 99.2793 v 120.5547 h 132.373 v 87.4609 h -132.373 v 168.5586 c 0,16.5725 0,32.5877 8.2012,40.6719 8.3573,8.24 25.2322,8.2402 42.3066,8.2402 h 81.8652 v 85.0977 h -70.914 c -47.2764,0 -104.4171,0 -132.7813,-27.3086 -27.9582,-26.9167 -27.957,-80.363 -27.957,-128.7031 v -146.5567 h -61.459 v -87.4609 h 61.459 z"
       style="opacity:1;fill:#ffffff"
       id="path83" /><path
       d="m 418.68164,2578.1563 a 0.16,0.16 0 0 1 -0.0586,0.068 0.16,0.16 0 0 1 -0.22266,-0.053 L 234.07031,2283.1816 h -94.30273 v 510.2637 H 234 v -330.7598 a 0.16,0.16 0 0 1 0.006,-0.053 0.16,0.16 0 0 1 0.002,-0.01 0.16,0.16 0 0 1 0.008,-0.02 0.16,0.16 0 0 1 0.0312,-0.047 0.16,0.16 0 0 0 0.002,0 0.16,0.16 0 0 1 0.0195,-0.016 0.16,0.16 0 0 1 0.0898,-0.031 0.16,0.16 0 0 1 0.0879,0.027 0.16,0.16 0 0 1 0.0449,0.043 l 184.24609,263.1328 184.24609,-263.1328 a 0.16,0.16 0 0 1 0.0137,-0.016 0.16,0.16 0 0 1 0.0312,-0.027 0.16,0.16 0 0 1 0.0195,-0.01 0.16,0.16 0 0 1 0.0664,-0.017 0.16,0.16 0 0 1 0.0742,0.022 0.16,0.16 0 0 1 0.0176,0.01 0.16,0.16 0 0 1 0.0156,0.014 0.16,0.16 0 0 1 0.0352,0.049 0.16,0.16 0 0 1 0.004,0.01 0.16,0.16 0 0 1 0.0117,0.055 0.16,0.16 0 0 1 0,0.02 v 330.7598 h 94.23437 v -510.2637 h -94.30469 z"
       style="opacity:1;fill:#ffffff"
       id="path84" /><path
       d="m 1924.7988,2268.8398 -201.4375,524.7657 h 108.7344 l 32.666,-85.0977 h 123.3457 123.3457 l 32.666,85.0977 h 108.7364 L 2051.416,2268.8398 h -63.3086 z m 63.3086,118.3418 85.2364,222.0469 h -85.2364 -85.2363 z"
       style="display:inline;fill:url(#linearGradient97)"
       id="path85" /><path
       d="m 2356.8613,2268.8398 v 524.7657 h 108.7364 v -524.7657 z"
       style="fill:url(#linearGradient96)"
       id="path86" /><path
       d="m 896.02734,2642.3203 c -10.59196,0 -42.54882,6e-4 -42.54882,33.0938 0,33.0934 31.95686,33.0937 42.54882,33.0937 h 101.64258 v -66.1875 z"
       style="fill:none;stroke:#000000;stroke-width:0.24;stroke-linecap:round;stroke-linejoin:round;stroke-miterlimit:10"
       id="path87" /><path
       d="m 841.6582,2403.5762 h 75.64258 c 33.09335,0 104.74492,6e-4 141.92192,35.5703 40.0909,38.3572 40.0918,118.0774 40.0918,165.3535 v 189.1055 H 997.66992 v -33.0938 c -12.46297,13.6956 -39.86271,26.1814 -68.98633,32.2832 -29.12361,6.1019 -59.9707,5.8201 -85.8789,-1.2539 -25.9083,-7.074 -46.87761,-20.9397 -61.13867,-38.8027 -14.26116,-17.863 -21.81437,-39.723 -23.56641,-61.6543 -1.75195,-21.9312 2.29727,-43.9329 10.27148,-62.9082 7.9742,-18.9751 19.87411,-34.9235 33.82227,-46.1113 27.89632,-22.3755 63.98868,-25.712 102.12891,-24.8399 h 93.34765 c 0,-66.1868 -25.24325,-66.1875 -72.51953,-66.1875 H 777.83594 v -23.6387 c 0,-16.5466 -4.8e-4,-39.8818 9.79101,-51.6992 10.04452,-12.1225 30.39308,-12.123 54.03125,-12.123 z"
       style="fill:none;stroke:#000000;stroke-width:0.24;stroke-linecap:round;stroke-linejoin:round;stroke-miterlimit:10"
       id="path88" /><path
       d="M 418.43945,2725.8516 234.32031,2462.9004 v 0.2793 l 184.08203,262.8945 a 0.16,0.16 0 0 1 0.004,-0.1758 z"
       style="fill:none;stroke:#000000;stroke-width:0.24;stroke-linecap:round;stroke-linejoin:round;stroke-miterlimit:10"
       id="path89" /><path
       d="m 602.75586,2463.1758 v -0.2774 l -184.12305,262.9532 0.0332,0.047 a 0.16,0.16 0 0 1 0.004,0.1758 z"
       style="fill:none;stroke:#000000;stroke-width:0.24;stroke-linecap:round;stroke-linejoin:round;stroke-miterlimit:10"
       id="path90" /><path
       style="fill:none;fill-opacity:1;stroke-width:20.7223;stroke-dasharray:none"
       d="m 2523.2445,2790.0971 c 0.8725,-1.4247 33.731,-39.4242 73.0189,-84.4434 39.2879,-45.0191 76.3868,-87.5416 82.442,-94.4943 l 11.0095,-12.6413 -81.3157,-93.1906 c -44.7237,-51.2549 -82.5956,-94.7559 -84.1598,-96.6688 -2.6494,-3.2401 0.8958,-3.4763 51.8057,-3.4516 l 54.6497,0.027 58.7977,67.4078 c 32.3387,37.0743 59.4949,67.1356 60.3471,66.8028 0.8522,-0.3327 27.8026,-30.6782 59.8898,-67.4344 l 58.3403,-66.8294 h 53.9983 c 29.6991,0 53.6875,0.7824 53.3076,1.7386 -0.3799,0.9562 -37.5246,43.915 -82.5438,95.4638 -45.0192,51.5489 -82.1438,94.5339 -82.4991,95.5222 -0.5013,1.3941 138.2447,162.381 162.9611,189.0836 l 5.2748,5.6987 h -54.977 -54.977 l -58.7674,-67.3475 c -32.322,-37.0411 -59.7439,-67.2887 -60.9374,-67.2169 -1.1936,0.072 -28.2802,30.3219 -60.1926,67.2225 l -58.0224,67.0919 -54.5183,0.125 c -43.1043,0.099 -54.1862,-0.4173 -52.932,-2.4653 z"
       id="path91" /><path
       style="fill:none;fill-opacity:1;stroke-width:20.7223;stroke-dasharray:none"
       d="m 1473.9616,2654.3661 c 1.0652,-147.4998 1.3831,-152.4102 12.0094,-185.4979 11.7002,-36.4317 37.6226,-55.0928 85.4467,-61.5119 9.0334,-1.2125 52.8394,-2.1758 98.9489,-2.1758 h 82.7392 v 42.4807 42.4807 h -68.2816 c -73.7881,0 -85.3989,1.2071 -95.8004,9.9593 -16.7506,14.0948 -18.2742,28.6791 -18.2742,174.9328 v 117.6534 h -48.8934 -48.8934 z"
       id="path92" /><path
       style="fill:none;fill-opacity:1;stroke-width:20.7223;stroke-dasharray:none"
       d="m 1294.5531,2790.3731 c -45.5132,-4.3855 -71.3314,-17.7145 -84.5672,-43.6588 -12.621,-24.7392 -14.3097,-43.419 -14.3097,-158.2914 v -98.281 h -31.0835 -31.0834 v -42.4807 -42.4807 h 31.0834 31.0835 v -60.0946 -60.0947 h 47.6613 47.6612 v 60.0947 60.0946 h 66.3114 66.3113 v 42.4807 42.4807 h -66.4857 -66.4858 l 0.744,97.9128 c 0.8276,108.9034 0.907,109.545 14.4652,116.9434 6.0792,3.3172 13.4778,3.8433 62.3302,4.4324 l 55.4321,0.6685 v 41.2942 41.2942 l -55.4321,-0.2801 c -30.4877,-0.154 -63.624,-1.0694 -73.6362,-2.0342 z"
       id="path93" /><path
       style="fill:none;fill-opacity:1;stroke-width:20.7223;stroke-dasharray:none"
       d="m 867.87065,2794.6706 c -56.98886,-6.6457 -95.60599,-39.7238 -106.56964,-91.284 -10.74238,-50.5196 16.71212,-110.4752 60.15664,-131.3712 23.65126,-11.3758 41.63195,-13.4899 114.73237,-13.4899 h 63.23867 l -1.25357,-16.0598 c -2.07362,-26.5655 -8.04091,-38.7551 -22.84778,-46.6721 -8.50727,-4.5486 -9.99258,-4.6245 -102.40084,-5.2318 l -93.76836,-0.6163 v -22.5943 c 0,-39.5233 6.48412,-54.455 26.0001,-59.8733 10.24019,-2.843 144.5488,-3.0074 166.7172,-0.2041 64.43796,8.1486 96.78796,30.5658 112.90966,78.2416 11.3715,33.6282 12.0704,43.3314 12.9823,180.2479 l 0.8453,126.9241 h -49.8991 -49.89918 v -16.5779 c 0,-9.1178 -0.76996,-16.5778 -1.71102,-16.5778 -0.94104,0 -3.83306,2.2588 -6.42668,5.0196 -6.43241,6.847 -31.59347,18.8284 -50.14034,23.8762 -13.86469,3.7735 -47.99951,8.7471 -55.69456,8.115 -1.70959,-0.1405 -9.34661,-0.9828 -16.97117,-1.8719 z m 130.94377,-119.1777 v -34.3053 l -61.64881,0.6316 c -57.27795,0.5868 -62.14768,0.9254 -68.68501,4.776 -11.48699,6.7661 -15.60483,13.9884 -15.68661,27.513 -0.11171,18.4723 8.00496,29.8339 24.01339,33.6135 3.84908,0.9087 32.87529,1.7477 64.50268,1.8644 l 57.50436,0.2121 z"
       id="path94" /><path
       style="fill:none;fill-opacity:1;stroke-width:1;stroke-dasharray:none"
       d="m 140.91158,2538.8393 v -253.8481 h 46.37434 46.37434 l 91.94208,147.1283 c 50.56814,80.9206 92.41225,147.1283 92.9869,147.1283 0.57465,0 42.34766,-66.2077 92.8289,-147.1283 l 91.78408,-147.1283 h 46.53338 46.53337 v 253.8481 253.8481 H 650.67993 605.09089 V 2626.909 c 0,-91.178 -0.69937,-165.7629 -1.55417,-165.7441 -0.85479,0.019 -42.58431,58.7511 -92.73225,130.5162 -50.14794,71.7652 -91.64433,130.4809 -92.21419,130.4794 -0.56987,0 -42.06625,-58.6963 -92.2142,-130.4328 -50.14794,-71.7364 -91.87746,-130.4674 -92.73225,-130.5134 -0.85479,-0.046 -1.55417,74.5167 -1.55417,165.6947 v 165.7784 h -45.58904 -45.58904 z"
       id="path95" /><path
       style="fill:none;stroke-width:1.1795"
       d="m 139.77031,2538.2704 v -254.1815 h 47.05331 47.0533 l 91.66896,146.8589 c 50.41791,80.7724 92.07934,147.1126 92.58093,147.4226 0.5016,0.31 42.29008,-65.6438 92.86329,-146.564 l 91.95131,-147.1277 46.77558,-0.3084 46.77559,-0.3084 v 254.195 254.1949 h -46.5901 -46.59011 v -165.3822 c 0,-142.4091 -0.2312,-165.1423 -1.66447,-163.6551 -0.91545,0.9499 -42.11614,59.5814 -91.55709,130.2922 -49.44095,70.7108 -90.29804,129.0097 -90.79352,129.5532 -0.4955,0.5434 -42.175,-57.9744 -92.62111,-130.0395 -50.44611,-72.0651 -92.17143,-131.0275 -92.72293,-131.0275 -0.5515,0 -1.00273,74.3082 -1.00273,165.1295 v 165.1294 h -46.5901 -46.59011 z"
       id="path96" /></g></svg>
